<svg xmlns="http://www.w3.org/2000/svg" viewBox="0 0 170 200"><defs><radialGradient id="a" cx="69.27" cy="139.05" r="39.95" gradientTransform="matrix(1.83 0 0 1 -41.43 0)" gradientUnits="userSpaceOnUse"><stop offset="0" stop-opacity=".5"/><stop offset=".99" stop-opacity="0"/></radialGradient><linearGradient id="b" x1="85.14" y1="145.1" x2="85.14" y2="59.94" gradientUnits="userSpaceOnUse"><stop offset="0" stop-color="#034475"/><stop offset=".52" stop-color="#023e6e"/><stop offset="1" stop-color="#003362"/></linearGradient></defs><circle cx="85" cy="115" r="65" opacity=".8" fill="#fff" data-name="circle background"/><ellipse cx="85.24" cy="139.05" rx="73.04" ry="39.95" fill="url(#a)"/><path fill="#003362" d="M85.14 51.69l26.81 26.8h46.14L136.84 50.9h-30.28L85.14 29.49 63.73 50.9H38.2l-26 27.59h46.14l26.8-26.8z"/><path fill="url(#b)" d="M153.65 136.22V84.84h-43.61l-24.9-24.9-24.9 24.9h-43.6v51.38H12.2v8.88h145.89v-8.88h-4.44z"/><path d="M30.59 98.16h10.15v10.15H30.59zm23.47 0h10.15v10.15H54.06zm-23.47 19.03h10.15v10.15H30.59zm23.47 0h10.15v10.15H54.06zm52.02-19.03h10.15v10.15h-10.15zm23.47 0h10.15v10.15h-10.15zm-23.47 19.03h10.15v10.15h-10.15zm23.47 0h10.15v10.15h-10.15zm-52.02-5.71h15.22v25.37H77.53z" fill="#fff"/><circle cx="85.14" cy="89.75" r="9.51" fill="#fdb515"/></svg>