<svg xmlns="http://www.w3.org/2000/svg" xmlns:xlink="http://www.w3.org/1999/xlink" viewBox="0 0 170 200"><defs><style>.cls-1,.cls-5{fill:#fff;}.cls-1{opacity:0.8;}.cls-2{fill:url(#radial-gradient-classroom);}.cls-3{fill:#003362;}.cls-4{fill:url(#linear-gradient-classroom);}.cls-6{fill:#fdb515;}</style><radialGradient id="radial-gradient-classroom" cx="69.27" cy="139.05" r="39.95" gradientTransform="translate(-41.43) scale(1.83 1)" gradientUnits="userSpaceOnUse"><stop offset="0" stop-opacity="0.5"/><stop offset="0.99" stop-opacity="0"/></radialGradient><linearGradient id="linear-gradient-classroom" x1="85.14" y1="145.1" x2="85.14" y2="59.94" gradientUnits="userSpaceOnUse"><stop offset="0" stop-color="#034475"/><stop offset="0.52" stop-color="#023e6e"/><stop offset="1" stop-color="#003362"/></linearGradient></defs><title>icon-classroom</title><g data-name="circle background"><circle class="cls-1" cx="85" cy="115" r="65"/></g><g id="classroom"><ellipse class="cls-2" cx="85.24" cy="139.05" rx="73.04" ry="39.95"/><polygon class="cls-3" points="85.14 51.69 111.95 78.49 158.09 78.49 136.84 50.9 106.56 50.9 85.14 29.49 63.73 50.9 48.35 50.9 38.2 50.9 12.2 78.49 58.34 78.49 85.14 51.69"/><polygon class="cls-4" points="153.65 136.22 153.65 84.84 110.04 84.84 85.14 59.94 60.24 84.84 16.64 84.84 16.64 136.22 12.2 136.22 12.2 145.1 158.09 145.1 158.09 136.22 153.65 136.22"/><rect class="cls-5" x="30.59" y="98.16" width="10.15" height="10.15"/><rect class="cls-5" x="54.06" y="98.16" width="10.15" height="10.15"/><rect class="cls-5" x="30.59" y="117.19" width="10.15" height="10.15"/><rect class="cls-5" x="54.06" y="117.19" width="10.15" height="10.15"/><rect class="cls-5" x="106.08" y="98.16" width="10.15" height="10.15"/><rect class="cls-5" x="129.55" y="98.16" width="10.15" height="10.15"/><rect class="cls-5" x="106.08" y="117.19" width="10.15" height="10.15"/><rect class="cls-5" x="129.55" y="117.19" width="10.15" height="10.15"/><rect class="cls-5" x="77.53" y="111.48" width="15.22" height="25.37"/><circle class="cls-6" cx="85.14" cy="89.75" r="9.51"/></g></svg>